<svg xmlns="http://www.w3.org/2000/svg" viewBox="0 0 475 105" width="475" height="105">
  <defs><linearGradient id="ball" x1="0.2" y1="0.0" x2="0.8" y2="1.0">
    <stop offset="0" stop-color="#FBD9A0"/><stop offset="0.5" stop-color="#F9C29A"/><stop offset="1" stop-color="#F2814F"/>
  </linearGradient></defs>
  <path d="M 22 82
   C 224 83, 345 67, 471 65
   C 336 71, 224 91, 22 90 Z"
   fill="#E8643C"/>
  <g transform="translate(18,67)">
    <g fill="#3D2419"><path transform="translate(0.00,0) scale(0.06000,-0.06000)" d="M969 325V0H856V308Q856 382 819.0 421.5Q782 461 718 461Q654 461 616.5 421.5Q579 382 579 308V0H466V308Q466 382 429.0 421.5Q392 461 328 461Q264 461 226.5 421.5Q189 382 189 308V0H75V551H189V488Q217 522 260.0 541.0Q303 560 352 560Q418 560 470.0 532.0Q522 504 550 451Q575 501 628.0 530.5Q681 560 742 560Q807 560 858.5 533.0Q910 506 939.5 453.0Q969 400 969 325Z"/>
<path transform="translate(62.84,0) scale(0.06000,-0.06000)" d="M571 551 233 -259H115L227 9L10 551H137L292 131L453 551Z"/>
<path transform="translate(98.26,0) scale(0.06000,-0.06000)" d="M45 169H163Q166 134 196.5 110.5Q227 87 273 87Q321 87 347.5 105.5Q374 124 374 153Q374 184 344.5 199.0Q315 214 251 232Q189 249 150.0 265.0Q111 281 82.5 314.0Q54 347 54 401Q54 445 80.0 481.5Q106 518 154.5 539.0Q203 560 266 560Q360 560 417.5 512.5Q475 465 479 383H365Q362 420 335.0 442.0Q308 464 262 464Q217 464 193.0 447.0Q169 430 169 402Q169 380 185.0 365.0Q201 350 224.0 341.5Q247 333 292 320Q352 304 390.5 287.5Q429 271 457.0 239.0Q485 207 486 154Q486 107 460.0 70.0Q434 33 386.5 12.0Q339 -9 275 -9Q210 -9 158.5 14.5Q107 38 77.0 78.5Q47 119 45 169Z"/>
<path transform="translate(130.80,0) scale(0.06000,-0.06000)" d="M381 560Q453 560 512.5 524.5Q572 489 606.0 425.0Q640 361 640 278Q640 195 606.0 129.5Q572 64 512.5 27.5Q453 -9 381 -9Q318 -9 269.0 16.5Q220 42 189 80V-262H75V551H189V470Q218 508 268.0 534.0Q318 560 381 560ZM356 461Q313 461 274.5 439.0Q236 417 212.5 375.0Q189 333 189 276Q189 219 212.5 176.5Q236 134 274.5 112.0Q313 90 356 90Q400 90 438.5 112.5Q477 135 500.5 178.0Q524 221 524 278Q524 335 500.5 376.5Q477 418 438.5 439.5Q400 461 356 461Z"/></g>
    <g transform="translate(204.5,-22)">
      <circle r="27" fill="url(#ball)"/>
      <path d="M -16.7 -9.2 Q -7.6 -16.7 2.7 -15.1" stroke="#ffffff" stroke-width="3" fill="none" stroke-linecap="round" opacity="0.32"/>
      <g fill="none" stroke="#FFFDF9" stroke-width="3.4" stroke-linecap="round">
      <path d="M 4.7 -26.6 Q -1.8 0.6 20.7 17.4"/>
      <path d="M 20.7 17.4 Q 0.3 -1.9 -25.4 9.2"/>
      <path d="M -25.4 9.2 Q 1.4 1.2 4.7 -26.6"/>
      </g>
    </g>
    <g transform="translate(237.5,0)" fill="#3D2419"><path transform="translate(0.00,0) scale(0.06000,-0.06000)" d="M354 560V442H325Q258 442 223.5 408.0Q189 374 189 290V0H75V551H189V471Q214 513 255.5 536.5Q297 560 354 560Z"/>
<path transform="translate(23.54,0) scale(0.06000,-0.06000)" d="M208 458V153Q208 122 222.5 108.5Q237 95 272 95H342V0H252Q175 0 134.0 36.0Q93 72 93 153V458H28V551H93V688H208V551H342V458Z"/>
<path transform="translate(46.36,0) scale(0.06000,-0.06000)" d="M45 169H163Q166 134 196.5 110.5Q227 87 273 87Q321 87 347.5 105.5Q374 124 374 153Q374 184 344.5 199.0Q315 214 251 232Q189 249 150.0 265.0Q111 281 82.5 314.0Q54 347 54 401Q54 445 80.0 481.5Q106 518 154.5 539.0Q203 560 266 560Q360 560 417.5 512.5Q475 465 479 383H365Q362 420 335.0 442.0Q308 464 262 464Q217 464 193.0 447.0Q169 430 169 402Q169 380 185.0 365.0Q201 350 224.0 341.5Q247 333 292 320Q352 304 390.5 287.5Q429 271 457.0 239.0Q485 207 486 154Q486 107 460.0 70.0Q434 33 386.5 12.0Q339 -9 275 -9Q210 -9 158.5 14.5Q107 38 77.0 78.5Q47 119 45 169Z"/></g>
    <g transform="translate(315.9,0)" fill="#D2522C"><path transform="translate(0.00,0) scale(0.06000,-0.06000)" d="M297 560Q362 560 410.5 534.5Q459 509 488 471V551H603V0H488V82Q459 43 409.0 17.0Q359 -9 295 -9Q224 -9 165.0 27.5Q106 64 71.5 129.5Q37 195 37 278Q37 361 71.5 425.0Q106 489 165.5 524.5Q225 560 297 560ZM321 461Q277 461 239.0 439.5Q201 418 177.5 376.5Q154 335 154 278Q154 221 177.5 178.0Q201 135 239.5 112.5Q278 90 321 90Q365 90 403.0 112.0Q441 134 464.5 176.5Q488 219 488 276Q488 333 464.5 375.0Q441 417 403.0 439.0Q365 461 321 461Z"/>
<path transform="translate(41.18,0) scale(0.06000,-0.06000)" d="M381 560Q453 560 512.5 524.5Q572 489 606.0 425.0Q640 361 640 278Q640 195 606.0 129.5Q572 64 512.5 27.5Q453 -9 381 -9Q318 -9 269.0 16.5Q220 42 189 80V-262H75V551H189V470Q218 508 268.0 534.0Q318 560 381 560ZM356 461Q313 461 274.5 439.0Q236 417 212.5 375.0Q189 333 189 276Q189 219 212.5 176.5Q236 134 274.5 112.0Q313 90 356 90Q400 90 438.5 112.5Q477 135 500.5 178.0Q524 221 524 278Q524 335 500.5 376.5Q477 418 438.5 439.5Q400 461 356 461Z"/>
<path transform="translate(82.36,0) scale(0.06000,-0.06000)" d="M381 560Q453 560 512.5 524.5Q572 489 606.0 425.0Q640 361 640 278Q640 195 606.0 129.5Q572 64 512.5 27.5Q453 -9 381 -9Q318 -9 269.0 16.5Q220 42 189 80V-262H75V551H189V470Q218 508 268.0 534.0Q318 560 381 560ZM356 461Q313 461 274.5 439.0Q236 417 212.5 375.0Q189 333 189 276Q189 219 212.5 176.5Q236 134 274.5 112.0Q313 90 356 90Q400 90 438.5 112.5Q477 135 500.5 178.0Q524 221 524 278Q524 335 500.5 376.5Q477 418 438.5 439.5Q400 461 356 461Z"/></g>
  </g>
</svg>